# Native macOS ScreenCaptureKit recording
# Format: n:<frame_number> pts_time:<seconds> perf_counter_ms:<milliseconds>
n:     0 pts_time:0.000000 perf_counter_ms:14935465.931
n:     1 pts_time:0.040014 perf_counter_ms:14935505.945
n:     2 pts_time:0.080029 perf_counter_ms:14935545.959
n:     3 pts_time:0.106705 perf_counter_ms:14935572.636
n:     4 pts_time:0.146719 perf_counter_ms:14935612.650
n:     5 pts_time:0.173396 perf_counter_ms:14935639.326
n:     6 pts_time:0.213410 perf_counter_ms:14935679.341
n:     7 pts_time:0.240086 perf_counter_ms:14935706.017
n:     8 pts_time:0.280101 perf_counter_ms:14935746.031
n:     9 pts_time:0.320115 perf_counter_ms:14935786.046
n:    10 pts_time:0.346791 perf_counter_ms:14935812.722
n:    11 pts_time:0.386806 perf_counter_ms:14935852.736
n:    12 pts_time:0.413482 perf_counter_ms:14935879.413
n:    13 pts_time:0.453496 perf_counter_ms:14935919.427
n:    14 pts_time:0.493511 perf_counter_ms:14935959.442
n:    15 pts_time:0.520187 perf_counter_ms:14935986.118
n:    16 pts_time:0.560202 perf_counter_ms:14936026.132
n:    17 pts_time:0.586878 perf_counter_ms:14936052.808
n:    18 pts_time:0.626892 perf_counter_ms:14936092.823
n:    19 pts_time:0.653568 perf_counter_ms:14936119.499
n:    20 pts_time:0.693583 perf_counter_ms:14936159.513
n:    21 pts_time:0.733597 perf_counter_ms:14936199.528
n:    22 pts_time:0.760273 perf_counter_ms:14936226.204
n:    23 pts_time:0.800288 perf_counter_ms:14936266.218
n:    24 pts_time:0.826964 perf_counter_ms:14936292.895
n:    25 pts_time:0.866978 perf_counter_ms:14936332.909
n:    26 pts_time:0.906993 perf_counter_ms:14936372.924
n:    27 pts_time:0.920331 perf_counter_ms:14936386.262
n:    28 pts_time:0.973683 perf_counter_ms:14936439.614
n:    29 pts_time:1.000360 perf_counter_ms:14936466.290
n:    30 pts_time:1.040374 perf_counter_ms:14936506.305
n:    31 pts_time:1.067050 perf_counter_ms:14936532.981
n:    32 pts_time:1.107065 perf_counter_ms:14936572.996
n:    33 pts_time:1.147079 perf_counter_ms:14936613.010
n:    34 pts_time:1.173755 perf_counter_ms:14936639.686
n:    35 pts_time:1.213770 perf_counter_ms:14936679.700
n:    36 pts_time:1.240446 perf_counter_ms:14936706.377
n:    37 pts_time:1.280460 perf_counter_ms:14936746.391
n:    38 pts_time:1.307137 perf_counter_ms:14936773.067
n:    39 pts_time:1.333813 perf_counter_ms:14936799.744
n:    40 pts_time:1.373827 perf_counter_ms:14936839.758
n:    41 pts_time:1.400504 perf_counter_ms:14936866.434
n:    42 pts_time:1.440518 perf_counter_ms:14936906.449
n:    43 pts_time:1.480532 perf_counter_ms:14936946.463
n:    44 pts_time:1.520547 perf_counter_ms:14936986.477
n:    45 pts_time:1.547223 perf_counter_ms:14937013.154
n:    46 pts_time:1.573899 perf_counter_ms:14937039.830
n:    47 pts_time:1.613913 perf_counter_ms:14937079.844
n:    48 pts_time:1.653928 perf_counter_ms:14937119.859
n:    49 pts_time:1.693942 perf_counter_ms:14937159.873
n:    50 pts_time:1.720618 perf_counter_ms:14937186.549
n:    51 pts_time:1.760633 perf_counter_ms:14937226.564
n:    52 pts_time:1.800647 perf_counter_ms:14937266.578
n:    53 pts_time:1.827324 perf_counter_ms:14937293.254
n:    54 pts_time:1.867338 perf_counter_ms:14937333.268
n:    55 pts_time:1.907352 perf_counter_ms:14937373.283
n:    56 pts_time:1.934028 perf_counter_ms:14937399.959
n:    57 pts_time:1.974043 perf_counter_ms:14937439.974
n:    58 pts_time:2.014057 perf_counter_ms:14937479.988
n:    59 pts_time:2.054071 perf_counter_ms:14937520.002
n:    60 pts_time:2.080748 perf_counter_ms:14937546.678
n:    61 pts_time:2.120762 perf_counter_ms:14937586.693
n:    62 pts_time:2.160776 perf_counter_ms:14937626.707
n:    63 pts_time:2.187453 perf_counter_ms:14937653.383
n:    64 pts_time:2.227467 perf_counter_ms:14937693.398
n:    65 pts_time:2.254143 perf_counter_ms:14937720.074
n:    66 pts_time:2.294158 perf_counter_ms:14937760.088
n:    67 pts_time:2.320834 perf_counter_ms:14937786.765
n:    68 pts_time:2.360848 perf_counter_ms:14937826.779
n:    69 pts_time:2.400863 perf_counter_ms:14937866.793
n:    70 pts_time:2.427539 perf_counter_ms:14937893.470
n:    71 pts_time:2.467553 perf_counter_ms:14937933.484
n:    72 pts_time:2.494230 perf_counter_ms:14937960.160
n:    73 pts_time:2.534244 perf_counter_ms:14938000.175
n:    74 pts_time:2.560920 perf_counter_ms:14938026.851
n:    75 pts_time:2.600934 perf_counter_ms:14938066.865
n:    76 pts_time:2.640949 perf_counter_ms:14938106.880
n:    77 pts_time:2.667625 perf_counter_ms:14938133.556
n:    78 pts_time:2.707640 perf_counter_ms:14938173.570
n:    79 pts_time:2.734316 perf_counter_ms:14938200.246
n:    80 pts_time:2.774330 perf_counter_ms:14938240.261
n:    81 pts_time:2.814344 perf_counter_ms:14938280.275
n:    82 pts_time:2.841021 perf_counter_ms:14938306.951
n:    83 pts_time:2.881035 perf_counter_ms:14938346.966
n:    84 pts_time:2.907711 perf_counter_ms:14938373.642
n:    85 pts_time:2.947726 perf_counter_ms:14938413.656
n:    86 pts_time:2.987740 perf_counter_ms:14938453.671
n:    87 pts_time:3.014416 perf_counter_ms:14938480.347
n:    88 pts_time:3.054431 perf_counter_ms:14938520.361
n:    89 pts_time:3.081107 perf_counter_ms:14938547.038
n:    90 pts_time:3.121121 perf_counter_ms:14938587.052
n:    91 pts_time:3.161136 perf_counter_ms:14938627.066
n:    92 pts_time:3.201150 perf_counter_ms:14938667.081
n:    93 pts_time:3.227826 perf_counter_ms:14938693.757
n:    94 pts_time:3.267841 perf_counter_ms:14938733.771
n:    95 pts_time:3.307855 perf_counter_ms:14938773.786
n:    96 pts_time:3.334531 perf_counter_ms:14938800.462
n:    97 pts_time:3.374546 perf_counter_ms:14938840.476
n:    98 pts_time:3.401222 perf_counter_ms:14938867.152
n:    99 pts_time:3.427898 perf_counter_ms:14938893.829
n:   100 pts_time:3.481250 perf_counter_ms:14938947.181
n:   101 pts_time:3.521265 perf_counter_ms:14938987.196
n:   102 pts_time:3.547941 perf_counter_ms:14939013.872
n:   103 pts_time:3.587955 perf_counter_ms:14939053.886
n:   104 pts_time:3.614632 perf_counter_ms:14939080.562
n:   105 pts_time:3.654646 perf_counter_ms:14939120.577
n:   106 pts_time:3.667984 perf_counter_ms:14939133.915
n:   107 pts_time:3.707998 perf_counter_ms:14939173.929
n:   108 pts_time:3.748013 perf_counter_ms:14939213.943
n:   109 pts_time:3.788027 perf_counter_ms:14939253.958
n:   110 pts_time:3.828042 perf_counter_ms:14939293.972
n:   111 pts_time:3.854718 perf_counter_ms:14939320.648
n:   112 pts_time:3.894732 perf_counter_ms:14939360.663
n:   113 pts_time:3.921408 perf_counter_ms:14939387.339
n:   114 pts_time:3.961423 perf_counter_ms:14939427.353
n:   115 pts_time:4.001437 perf_counter_ms:14939467.368
n:   116 pts_time:4.028113 perf_counter_ms:14939494.044
n:   117 pts_time:4.068128 perf_counter_ms:14939534.058
n:   118 pts_time:4.108142 perf_counter_ms:14939574.073
n:   119 pts_time:4.134818 perf_counter_ms:14939600.749
n:   120 pts_time:4.174833 perf_counter_ms:14939640.763
n:   121 pts_time:4.214847 perf_counter_ms:14939680.778
n:   122 pts_time:4.241523 perf_counter_ms:14939707.454
n:   123 pts_time:4.281538 perf_counter_ms:14939747.468
n:   124 pts_time:4.321552 perf_counter_ms:14939787.483
n:   125 pts_time:4.348228 perf_counter_ms:14939814.159
n:   126 pts_time:4.388242 perf_counter_ms:14939854.173
n:   127 pts_time:4.414919 perf_counter_ms:14939880.849
n:   128 pts_time:4.441595 perf_counter_ms:14939907.526
n:   129 pts_time:4.481609 perf_counter_ms:14939947.540
n:   130 pts_time:4.508285 perf_counter_ms:14939974.216
n:   131 pts_time:4.548299 perf_counter_ms:14940014.230
n:   132 pts_time:4.574976 perf_counter_ms:14940040.906
n:   133 pts_time:4.614990 perf_counter_ms:14940080.921
n:   134 pts_time:4.655004 perf_counter_ms:14940120.935
n:   135 pts_time:4.681681 perf_counter_ms:14940147.612
n:   136 pts_time:4.721695 perf_counter_ms:14940187.626
n:   137 pts_time:4.748371 perf_counter_ms:14940214.302
n:   138 pts_time:4.788386 perf_counter_ms:14940254.316
n:   139 pts_time:4.828400 perf_counter_ms:14940294.331
n:   140 pts_time:4.868415 perf_counter_ms:14940334.345
n:   141 pts_time:4.895091 perf_counter_ms:14940361.022
n:   142 pts_time:4.935105 perf_counter_ms:14940401.036
n:   143 pts_time:4.961782 perf_counter_ms:14940427.712
n:   144 pts_time:5.001796 perf_counter_ms:14940467.727
n:   145 pts_time:5.041810 perf_counter_ms:14940507.741
n:   146 pts_time:5.068487 perf_counter_ms:14940534.417
n:   147 pts_time:5.108501 perf_counter_ms:14940574.432
n:   148 pts_time:5.135177 perf_counter_ms:14940601.108
n:   149 pts_time:5.175191 perf_counter_ms:14940641.122
n:   150 pts_time:5.215206 perf_counter_ms:14940681.136
n:   151 pts_time:5.255220 perf_counter_ms:14940721.151
n:   152 pts_time:5.281896 perf_counter_ms:14940747.827
n:   153 pts_time:5.321911 perf_counter_ms:14940787.841
n:   154 pts_time:5.348587 perf_counter_ms:14940814.518
n:   155 pts_time:5.388601 perf_counter_ms:14940854.532
n:   156 pts_time:5.428616 perf_counter_ms:14940894.546
n:   157 pts_time:5.455292 perf_counter_ms:14940921.223
n:   158 pts_time:5.495306 perf_counter_ms:14940961.237
n:   159 pts_time:5.521983 perf_counter_ms:14940987.913
n:   160 pts_time:5.561997 perf_counter_ms:14941027.928
n:   161 pts_time:5.602011 perf_counter_ms:14941067.942
n:   162 pts_time:5.628687 perf_counter_ms:14941094.618
n:   163 pts_time:5.668702 perf_counter_ms:14941134.633
n:   164 pts_time:5.708716 perf_counter_ms:14941174.647
n:   165 pts_time:5.735392 perf_counter_ms:14941201.323
n:   166 pts_time:5.748731 perf_counter_ms:14941214.661
n:   167 pts_time:5.788745 perf_counter_ms:14941254.675
n:   168 pts_time:5.828759 perf_counter_ms:14941294.690
n:   169 pts_time:5.855435 perf_counter_ms:14941321.366
n:   170 pts_time:5.895449 perf_counter_ms:14941361.380
n:   171 pts_time:5.935464 perf_counter_ms:14941401.394
n:   172 pts_time:5.962140 perf_counter_ms:14941428.070
n:   173 pts_time:6.002154 perf_counter_ms:14941468.085
n:   174 pts_time:6.028830 perf_counter_ms:14941494.761
n:   175 pts_time:6.068844 perf_counter_ms:14941534.775
n:   176 pts_time:6.095521 perf_counter_ms:14941561.451
n:   177 pts_time:6.135535 perf_counter_ms:14941601.466
n:   178 pts_time:6.162211 perf_counter_ms:14941628.142
n:   179 pts_time:6.202225 perf_counter_ms:14941668.156
n:   180 pts_time:6.242239 perf_counter_ms:14941708.170
n:   181 pts_time:6.282255 perf_counter_ms:14941748.186
n:   182 pts_time:6.322270 perf_counter_ms:14941788.200
n:   183 pts_time:6.348946 perf_counter_ms:14941814.877
n:   184 pts_time:6.388960 perf_counter_ms:14941854.891
n:   185 pts_time:6.415636 perf_counter_ms:14941881.567
n:   186 pts_time:6.455651 perf_counter_ms:14941921.582
n:   187 pts_time:6.482327 perf_counter_ms:14941948.258
n:   188 pts_time:6.522341 perf_counter_ms:14941988.272
n:   189 pts_time:6.562356 perf_counter_ms:14942028.287
n:   190 pts_time:6.589032 perf_counter_ms:14942054.963
n:   191 pts_time:6.629046 perf_counter_ms:14942094.977
n:   192 pts_time:6.655723 perf_counter_ms:14942121.653
n:   193 pts_time:6.695737 perf_counter_ms:14942161.668
n:   194 pts_time:6.735751 perf_counter_ms:14942201.682
n:   195 pts_time:6.762428 perf_counter_ms:14942228.358
n:   196 pts_time:6.802442 perf_counter_ms:14942268.373
n:   197 pts_time:6.842456 perf_counter_ms:14942308.387
n:   198 pts_time:6.855794 perf_counter_ms:14942321.725
n:   199 pts_time:6.895809 perf_counter_ms:14942361.739
n:   200 pts_time:6.935823 perf_counter_ms:14942401.754
n:   201 pts_time:6.962499 perf_counter_ms:14942428.430
n:   202 pts_time:6.989175 perf_counter_ms:14942455.106
n:   203 pts_time:7.029190 perf_counter_ms:14942495.120
n:   204 pts_time:7.069204 perf_counter_ms:14942535.135
n:   205 pts_time:7.095881 perf_counter_ms:14942561.811
n:   206 pts_time:7.135895 perf_counter_ms:14942601.826
n:   207 pts_time:7.162571 perf_counter_ms:14942628.502
n:   208 pts_time:7.202586 perf_counter_ms:14942668.516
n:   209 pts_time:7.229262 perf_counter_ms:14942695.193
n:   210 pts_time:7.269276 perf_counter_ms:14942735.207
n:   211 pts_time:7.309291 perf_counter_ms:14942775.221
n:   212 pts_time:7.349305 perf_counter_ms:14942815.236
n:   213 pts_time:7.375981 perf_counter_ms:14942841.912
n:   214 pts_time:7.415996 perf_counter_ms:14942881.926
n:   215 pts_time:7.442672 perf_counter_ms:14942908.603
n:   216 pts_time:7.482686 perf_counter_ms:14942948.617
n:   217 pts_time:7.522701 perf_counter_ms:14942988.631
n:   218 pts_time:7.549377 perf_counter_ms:14943015.308
n:   219 pts_time:7.589391 perf_counter_ms:14943055.322
n:   220 pts_time:7.616068 perf_counter_ms:14943081.998
n:   221 pts_time:7.656082 perf_counter_ms:14943122.013
n:   222 pts_time:7.669420 perf_counter_ms:14943135.351
n:   223 pts_time:7.722773 perf_counter_ms:14943188.703
n:   224 pts_time:7.762787 perf_counter_ms:14943228.718
n:   225 pts_time:7.789463 perf_counter_ms:14943255.394
n:   226 pts_time:7.829478 perf_counter_ms:14943295.408
n:   227 pts_time:7.856154 perf_counter_ms:14943322.085
n:   228 pts_time:7.896168 perf_counter_ms:14943362.099
n:   229 pts_time:7.936183 perf_counter_ms:14943402.113
n:   230 pts_time:7.976197 perf_counter_ms:14943442.128
n:   231 pts_time:8.002873 perf_counter_ms:14943468.804
n:   232 pts_time:8.042887 perf_counter_ms:14943508.818
n:   233 pts_time:8.069564 perf_counter_ms:14943535.494
n:   234 pts_time:8.096240 perf_counter_ms:14943562.171
n:   235 pts_time:8.149593 perf_counter_ms:14943615.523
n:   236 pts_time:8.176269 perf_counter_ms:14943642.199
n:   237 pts_time:8.189607 perf_counter_ms:14943655.538
n:   238 pts_time:8.229621 perf_counter_ms:14943695.552
n:   239 pts_time:8.269635 perf_counter_ms:14943735.566
n:   240 pts_time:8.309650 perf_counter_ms:14943775.580
n:   241 pts_time:8.336326 perf_counter_ms:14943802.257
n:   242 pts_time:8.376340 perf_counter_ms:14943842.271
n:   243 pts_time:8.403016 perf_counter_ms:14943868.947
n:   244 pts_time:8.443031 perf_counter_ms:14943908.961
n:   245 pts_time:8.469707 perf_counter_ms:14943935.638
n:   246 pts_time:8.523060 perf_counter_ms:14943988.991
n:   247 pts_time:8.536398 perf_counter_ms:14944002.329
n:   248 pts_time:8.589751 perf_counter_ms:14944055.681
n:   249 pts_time:8.603089 perf_counter_ms:14944069.019
n:   250 pts_time:8.629765 perf_counter_ms:14944095.696
n:   251 pts_time:8.669779 perf_counter_ms:14944135.710
n:   252 pts_time:8.709794 perf_counter_ms:14944175.724
n:   253 pts_time:8.763146 perf_counter_ms:14944229.077
n:   254 pts_time:8.789822 perf_counter_ms:14944255.753
n:   255 pts_time:8.816498 perf_counter_ms:14944282.429
n:   256 pts_time:8.843175 perf_counter_ms:14944309.105
n:   257 pts_time:8.883189 perf_counter_ms:14944349.120
n:   258 pts_time:8.909865 perf_counter_ms:14944375.796
n:   259 pts_time:8.949879 perf_counter_ms:14944415.810
n:   260 pts_time:8.989894 perf_counter_ms:14944455.824
n:   261 pts_time:9.029909 perf_counter_ms:14944495.839
n:   262 pts_time:9.056585 perf_counter_ms:14944522.515
n:   263 pts_time:9.096599 perf_counter_ms:14944562.530
n:   264 pts_time:9.136613 perf_counter_ms:14944602.544
n:   265 pts_time:9.163290 perf_counter_ms:14944629.220
n:   266 pts_time:9.203304 perf_counter_ms:14944669.235
n:   267 pts_time:9.229980 perf_counter_ms:14944695.911
n:   268 pts_time:9.269995 perf_counter_ms:14944735.925
n:   269 pts_time:9.296671 perf_counter_ms:14944762.601
n:   270 pts_time:9.336685 perf_counter_ms:14944802.616
n:   271 pts_time:9.363361 perf_counter_ms:14944829.292
n:   272 pts_time:9.403376 perf_counter_ms:14944869.306
n:   273 pts_time:9.430052 perf_counter_ms:14944895.982
n:   274 pts_time:9.470066 perf_counter_ms:14944935.997
n:   275 pts_time:9.496742 perf_counter_ms:14944962.673
n:   276 pts_time:9.536757 perf_counter_ms:14945002.687
n:   277 pts_time:9.576771 perf_counter_ms:14945042.702
n:   278 pts_time:9.603447 perf_counter_ms:14945069.378
n:   279 pts_time:9.643461 perf_counter_ms:14945109.392
n:   280 pts_time:9.670138 perf_counter_ms:14945136.068
n:   281 pts_time:9.736828 perf_counter_ms:14945202.759
n:   282 pts_time:9.763505 perf_counter_ms:14945229.435
n:   283 pts_time:9.803519 perf_counter_ms:14945269.449
n:   284 pts_time:9.830195 perf_counter_ms:14945296.126
n:   285 pts_time:9.870209 perf_counter_ms:14945336.140
n:   286 pts_time:9.910224 perf_counter_ms:14945376.154
n:   287 pts_time:9.936900 perf_counter_ms:14945402.830
n:   288 pts_time:9.976914 perf_counter_ms:14945442.845
n:   289 pts_time:10.003590 perf_counter_ms:14945469.521
n:   290 pts_time:10.030266 perf_counter_ms:14945496.197
n:   291 pts_time:10.096957 perf_counter_ms:14945562.888
n:   292 pts_time:10.136971 perf_counter_ms:14945602.902
n:   293 pts_time:10.163647 perf_counter_ms:14945629.578
n:   294 pts_time:10.203662 perf_counter_ms:14945669.592
n:   295 pts_time:10.230338 perf_counter_ms:14945696.269
n:   296 pts_time:10.270352 perf_counter_ms:14945736.283
n:   297 pts_time:10.297028 perf_counter_ms:14945762.959
n:   298 pts_time:10.337043 perf_counter_ms:14945802.973
n:   299 pts_time:10.377057 perf_counter_ms:14945842.988
n:   300 pts_time:10.403733 perf_counter_ms:14945869.664
n:   301 pts_time:10.443747 perf_counter_ms:14945909.678
n:   302 pts_time:10.483762 perf_counter_ms:14945949.692
n:   303 pts_time:10.510438 perf_counter_ms:14945976.369
n:   304 pts_time:10.550452 perf_counter_ms:14946016.383
n:   305 pts_time:10.577128 perf_counter_ms:14946043.059
n:   306 pts_time:10.603804 perf_counter_ms:14946069.735
n:   307 pts_time:10.630481 perf_counter_ms:14946096.411
n:   308 pts_time:10.670495 perf_counter_ms:14946136.426
n:   309 pts_time:10.710509 perf_counter_ms:14946176.440
n:   310 pts_time:10.737185 perf_counter_ms:14946203.116
n:   311 pts_time:10.790538 perf_counter_ms:14946256.468
n:   312 pts_time:10.817214 perf_counter_ms:14946283.145
n:   313 pts_time:10.857228 perf_counter_ms:14946323.159
n:   314 pts_time:10.897243 perf_counter_ms:14946363.173
n:   315 pts_time:10.923919 perf_counter_ms:14946389.850
n:   316 pts_time:10.963933 perf_counter_ms:14946429.864
n:   317 pts_time:11.003947 perf_counter_ms:14946469.878
n:   318 pts_time:11.030624 perf_counter_ms:14946496.554
n:   319 pts_time:11.070638 perf_counter_ms:14946536.569
n:   320 pts_time:11.110652 perf_counter_ms:14946576.583
n:   321 pts_time:11.137328 perf_counter_ms:14946603.259
n:   322 pts_time:11.177343 perf_counter_ms:14946643.273
n:   323 pts_time:11.217357 perf_counter_ms:14946683.288
n:   324 pts_time:11.244033 perf_counter_ms:14946709.964
n:   325 pts_time:11.284047 perf_counter_ms:14946749.978
n:   326 pts_time:11.324062 perf_counter_ms:14946789.992
n:   327 pts_time:11.350738 perf_counter_ms:14946816.668
n:   328 pts_time:11.390752 perf_counter_ms:14946856.683
n:   329 pts_time:11.430766 perf_counter_ms:14946896.697
n:   330 pts_time:11.470781 perf_counter_ms:14946936.711
n:   331 pts_time:11.497457 perf_counter_ms:14946963.388
n:   332 pts_time:11.537471 perf_counter_ms:14947003.402
n:   333 pts_time:11.564147 perf_counter_ms:14947030.078
n:   334 pts_time:11.604162 perf_counter_ms:14947070.092
